<mxfile host="app.diagrams.net" modified="2024-06-02T09:59:51.034Z" agent="Mozilla/5.0 (Macintosh; Intel Mac OS X 10_15_7) AppleWebKit/537.36 (KHTML, like Gecko) Chrome/123.0.0.0 Safari/537.36" etag="_7LGs9JlmKll0z31y3_B" version="24.2.5" type="device">
  <diagram name="Page-1" id="D9LIEILpVpGueqFPK0TL">
    <mxGraphModel dx="943" dy="538" grid="1" gridSize="10" guides="1" tooltips="1" connect="1" arrows="1" fold="1" page="1" pageScale="1" pageWidth="827" pageHeight="1169" math="1" shadow="0">
      <root>
        <mxCell id="0" />
        <mxCell id="1" parent="0" />
        <mxCell id="5lgF-B48ensd-EPBzMQI-40" style="edgeStyle=orthogonalEdgeStyle;rounded=0;orthogonalLoop=1;jettySize=auto;html=1;exitX=1;exitY=0.5;exitDx=0;exitDy=0;entryX=0.5;entryY=1;entryDx=0;entryDy=0;fontSize=7;" edge="1" parent="1" source="5lgF-B48ensd-EPBzMQI-1" target="5lgF-B48ensd-EPBzMQI-18">
          <mxGeometry relative="1" as="geometry" />
        </mxCell>
        <mxCell id="5lgF-B48ensd-EPBzMQI-1" value="" style="rounded=1;whiteSpace=wrap;html=1;fillColor=#ffe6cc;strokeColor=#d79b00;" vertex="1" parent="1">
          <mxGeometry x="40" y="45" width="20" height="160" as="geometry" />
        </mxCell>
        <mxCell id="5lgF-B48ensd-EPBzMQI-2" value="" style="ellipse;whiteSpace=wrap;html=1;aspect=fixed;" vertex="1" parent="1">
          <mxGeometry x="45" y="50" width="10" height="10" as="geometry" />
        </mxCell>
        <mxCell id="5lgF-B48ensd-EPBzMQI-3" value="" style="ellipse;whiteSpace=wrap;html=1;aspect=fixed;" vertex="1" parent="1">
          <mxGeometry x="45" y="65" width="10" height="10" as="geometry" />
        </mxCell>
        <mxCell id="5lgF-B48ensd-EPBzMQI-4" value="" style="ellipse;whiteSpace=wrap;html=1;aspect=fixed;" vertex="1" parent="1">
          <mxGeometry x="45" y="79" width="10" height="10" as="geometry" />
        </mxCell>
        <mxCell id="5lgF-B48ensd-EPBzMQI-5" value="" style="ellipse;whiteSpace=wrap;html=1;aspect=fixed;" vertex="1" parent="1">
          <mxGeometry x="45" y="94" width="10" height="10" as="geometry" />
        </mxCell>
        <mxCell id="5lgF-B48ensd-EPBzMQI-6" value="" style="ellipse;whiteSpace=wrap;html=1;aspect=fixed;" vertex="1" parent="1">
          <mxGeometry x="45" y="110" width="10" height="10" as="geometry" />
        </mxCell>
        <mxCell id="5lgF-B48ensd-EPBzMQI-7" value="" style="ellipse;whiteSpace=wrap;html=1;aspect=fixed;" vertex="1" parent="1">
          <mxGeometry x="45" y="126" width="10" height="10" as="geometry" />
        </mxCell>
        <mxCell id="5lgF-B48ensd-EPBzMQI-8" value="" style="ellipse;whiteSpace=wrap;html=1;aspect=fixed;" vertex="1" parent="1">
          <mxGeometry x="45" y="157" width="10" height="10" as="geometry" />
        </mxCell>
        <mxCell id="5lgF-B48ensd-EPBzMQI-9" value="" style="ellipse;whiteSpace=wrap;html=1;aspect=fixed;" vertex="1" parent="1">
          <mxGeometry x="45" y="141" width="10" height="10" as="geometry" />
        </mxCell>
        <mxCell id="5lgF-B48ensd-EPBzMQI-14" value="" style="ellipse;whiteSpace=wrap;html=1;aspect=fixed;" vertex="1" parent="1">
          <mxGeometry x="45" y="173" width="10" height="10" as="geometry" />
        </mxCell>
        <mxCell id="5lgF-B48ensd-EPBzMQI-15" value="" style="ellipse;whiteSpace=wrap;html=1;aspect=fixed;" vertex="1" parent="1">
          <mxGeometry x="45" y="189" width="10" height="10" as="geometry" />
        </mxCell>
        <mxCell id="5lgF-B48ensd-EPBzMQI-42" style="edgeStyle=orthogonalEdgeStyle;rounded=0;orthogonalLoop=1;jettySize=auto;html=1;exitX=0.5;exitY=0;exitDx=0;exitDy=0;entryX=0;entryY=0.5;entryDx=0;entryDy=0;" edge="1" parent="1" source="5lgF-B48ensd-EPBzMQI-18" target="5lgF-B48ensd-EPBzMQI-25">
          <mxGeometry relative="1" as="geometry" />
        </mxCell>
        <mxCell id="5lgF-B48ensd-EPBzMQI-18" value="" style="shape=trapezoid;perimeter=trapezoidPerimeter;whiteSpace=wrap;html=1;fixedSize=1;rotation=90;fillColor=#dae8fc;strokeColor=#6c8ebf;" vertex="1" parent="1">
          <mxGeometry x="71.5" y="85" width="105" height="78" as="geometry" />
        </mxCell>
        <mxCell id="5lgF-B48ensd-EPBzMQI-22" value="&lt;font style=&quot;font-size: 8px;&quot;&gt;&lt;b&gt;Encoder&lt;/b&gt;&lt;br style=&quot;font-size: 8px;&quot;&gt;&lt;/font&gt;&lt;div style=&quot;font-size: 8px;&quot;&gt;&lt;font style=&quot;font-size: 8px;&quot;&gt;&lt;span style=&quot;font-family: Times; font-size: 8px;&quot;&gt;&lt;font style=&quot;font-size: 8px;&quot;&gt;&lt;i style=&quot;font-size: 8px;&quot;&gt;e&lt;sub style=&quot;font-size: 8px;&quot;&gt;Ï†&lt;/sub&gt;&lt;/i&gt;&lt;/font&gt;&lt;/span&gt;&lt;br style=&quot;font-size: 8px;&quot;&gt;&lt;/font&gt;&lt;/div&gt;" style="text;html=1;align=center;verticalAlign=middle;whiteSpace=wrap;rounded=0;fontColor=#000000;fontSize=8;" vertex="1" parent="1">
          <mxGeometry x="94" y="109" width="60" height="31" as="geometry" />
        </mxCell>
        <mxCell id="5lgF-B48ensd-EPBzMQI-79" style="edgeStyle=orthogonalEdgeStyle;rounded=0;orthogonalLoop=1;jettySize=auto;html=1;exitX=0.5;exitY=1;exitDx=0;exitDy=0;entryX=0.5;entryY=0;entryDx=0;entryDy=0;" edge="1" parent="1" source="5lgF-B48ensd-EPBzMQI-25" target="5lgF-B48ensd-EPBzMQI-44">
          <mxGeometry relative="1" as="geometry" />
        </mxCell>
        <mxCell id="5lgF-B48ensd-EPBzMQI-25" value="" style="rounded=1;whiteSpace=wrap;html=1;fillColor=#f8cecc;strokeColor=#b85450;" vertex="1" parent="1">
          <mxGeometry x="184" y="89" width="20" height="70" as="geometry" />
        </mxCell>
        <mxCell id="5lgF-B48ensd-EPBzMQI-29" value="" style="ellipse;whiteSpace=wrap;html=1;aspect=fixed;" vertex="1" parent="1">
          <mxGeometry x="189" y="93" width="10" height="10" as="geometry" />
        </mxCell>
        <mxCell id="5lgF-B48ensd-EPBzMQI-30" value="" style="ellipse;whiteSpace=wrap;html=1;aspect=fixed;" vertex="1" parent="1">
          <mxGeometry x="189" y="109" width="10" height="10" as="geometry" />
        </mxCell>
        <mxCell id="5lgF-B48ensd-EPBzMQI-31" value="" style="ellipse;whiteSpace=wrap;html=1;aspect=fixed;" vertex="1" parent="1">
          <mxGeometry x="189" y="127" width="10" height="10" as="geometry" />
        </mxCell>
        <mxCell id="5lgF-B48ensd-EPBzMQI-33" value="" style="ellipse;whiteSpace=wrap;html=1;aspect=fixed;" vertex="1" parent="1">
          <mxGeometry x="189" y="144" width="10" height="10" as="geometry" />
        </mxCell>
        <mxCell id="5lgF-B48ensd-EPBzMQI-41" value="$$\textbf{z}$$" style="text;html=1;align=center;verticalAlign=middle;whiteSpace=wrap;rounded=0;fontStyle=1;fontFamily=Verdana;" vertex="1" parent="1">
          <mxGeometry x="164" y="63" width="60" height="30" as="geometry" />
        </mxCell>
        <mxCell id="5lgF-B48ensd-EPBzMQI-44" value="" style="ellipse;whiteSpace=wrap;html=1;aspect=fixed;" vertex="1" parent="1">
          <mxGeometry x="159" y="208" width="70" height="70" as="geometry" />
        </mxCell>
        <mxCell id="5lgF-B48ensd-EPBzMQI-45" value="" style="ellipse;whiteSpace=wrap;html=1;aspect=fixed;" vertex="1" parent="1">
          <mxGeometry x="NaN" y="NaN" width="NaN" height="20" as="geometry" />
        </mxCell>
        <mxCell id="5lgF-B48ensd-EPBzMQI-46" value="" style="ellipse;whiteSpace=wrap;html=1;aspect=fixed;fillColor=#d5e8d4;strokeColor=#82b366;" vertex="1" parent="1">
          <mxGeometry x="215" y="224" width="10" height="10" as="geometry" />
        </mxCell>
        <mxCell id="5lgF-B48ensd-EPBzMQI-47" value="" style="ellipse;whiteSpace=wrap;html=1;aspect=fixed;fillColor=#d5e8d4;strokeColor=#82b366;" vertex="1" parent="1">
          <mxGeometry x="190" y="262" width="10" height="10" as="geometry" />
        </mxCell>
        <mxCell id="5lgF-B48ensd-EPBzMQI-48" value="" style="ellipse;whiteSpace=wrap;html=1;aspect=fixed;fillColor=#d5e8d4;strokeColor=#82b366;" vertex="1" parent="1">
          <mxGeometry x="180" y="231" width="10" height="10" as="geometry" />
        </mxCell>
        <mxCell id="5lgF-B48ensd-EPBzMQI-49" value="" style="ellipse;whiteSpace=wrap;html=1;aspect=fixed;fillColor=#d5e8d4;strokeColor=#82b366;" vertex="1" parent="1">
          <mxGeometry x="215" y="245" width="10" height="10" as="geometry" />
        </mxCell>
        <mxCell id="5lgF-B48ensd-EPBzMQI-50" value="" style="ellipse;whiteSpace=wrap;html=1;aspect=fixed;fillColor=#d5e8d4;strokeColor=#82b366;" vertex="1" parent="1">
          <mxGeometry x="170" y="255" width="10" height="10" as="geometry" />
        </mxCell>
        <mxCell id="5lgF-B48ensd-EPBzMQI-51" value="" style="ellipse;whiteSpace=wrap;html=1;aspect=fixed;fillColor=#d5e8d4;strokeColor=#82b366;" vertex="1" parent="1">
          <mxGeometry x="190" y="215" width="10" height="10" as="geometry" />
        </mxCell>
        <mxCell id="5lgF-B48ensd-EPBzMQI-53" value="" style="shape=mxgraph.sysml.x;fillColor=#f8cecc;strokeColor=#b85450;" vertex="1" parent="1">
          <mxGeometry x="216" y="202" width="10" height="10" as="geometry" />
        </mxCell>
        <mxCell id="5lgF-B48ensd-EPBzMQI-55" value="" style="shape=mxgraph.sysml.x;fillColor=#f8cecc;strokeColor=#b85450;" vertex="1" parent="1">
          <mxGeometry x="229" y="256" width="10" height="10" as="geometry" />
        </mxCell>
        <mxCell id="5lgF-B48ensd-EPBzMQI-56" value="" style="shape=mxgraph.sysml.x;fillColor=#f8cecc;strokeColor=#b85450;" vertex="1" parent="1">
          <mxGeometry x="170" y="199" width="10" height="10" as="geometry" />
        </mxCell>
        <mxCell id="5lgF-B48ensd-EPBzMQI-57" value="" style="shape=mxgraph.sysml.x;fillColor=#f8cecc;strokeColor=#b85450;" vertex="1" parent="1">
          <mxGeometry x="170" y="279" width="10" height="10" as="geometry" />
        </mxCell>
        <mxCell id="5lgF-B48ensd-EPBzMQI-58" value="&lt;font style=&quot;font-size: 6px;&quot;&gt;Hypersphere&lt;/font&gt;&lt;div style=&quot;font-size: 6px;&quot;&gt;&lt;font style=&quot;font-size: 6px;&quot;&gt;minimization&lt;/font&gt;&lt;/div&gt;" style="text;html=1;align=center;verticalAlign=middle;whiteSpace=wrap;rounded=0;fontSize=6;fontStyle=1" vertex="1" parent="1">
          <mxGeometry x="149.5" y="169.5" width="45" height="17" as="geometry" />
        </mxCell>
        <mxCell id="5lgF-B48ensd-EPBzMQI-75" style="edgeStyle=orthogonalEdgeStyle;rounded=0;orthogonalLoop=1;jettySize=auto;html=1;exitX=0.5;exitY=1;exitDx=0;exitDy=0;" edge="1" parent="1" source="5lgF-B48ensd-EPBzMQI-59">
          <mxGeometry relative="1" as="geometry">
            <mxPoint x="330" y="123.81818181818176" as="targetPoint" />
          </mxGeometry>
        </mxCell>
        <mxCell id="5lgF-B48ensd-EPBzMQI-59" value="" style="shape=trapezoid;perimeter=trapezoidPerimeter;whiteSpace=wrap;html=1;fixedSize=1;rotation=90;fillColor=#e1d5e7;strokeColor=#9673a6;direction=west;" vertex="1" parent="1">
          <mxGeometry x="210" y="85" width="105" height="78" as="geometry" />
        </mxCell>
        <mxCell id="5lgF-B48ensd-EPBzMQI-60" style="edgeStyle=orthogonalEdgeStyle;rounded=0;orthogonalLoop=1;jettySize=auto;html=1;entryX=0;entryY=0.5;entryDx=0;entryDy=0;exitX=1;exitY=0.5;exitDx=0;exitDy=0;" edge="1" parent="1" source="5lgF-B48ensd-EPBzMQI-25">
          <mxGeometry relative="1" as="geometry">
            <mxPoint x="210" y="124" as="sourcePoint" />
            <mxPoint x="224" y="123.77" as="targetPoint" />
          </mxGeometry>
        </mxCell>
        <mxCell id="5lgF-B48ensd-EPBzMQI-62" value="&lt;font style=&quot;font-size: 8px;&quot;&gt;&lt;b&gt;Decoder&lt;/b&gt;&lt;br style=&quot;font-size: 8px;&quot;&gt;&lt;/font&gt;&lt;div style=&quot;font-size: 8px;&quot;&gt;&lt;font style=&quot;font-size: 8px;&quot;&gt;&lt;i&gt;&lt;span style=&quot;font-family: Times; font-size: 8px;&quot;&gt;&lt;font style=&quot;font-size: 8px;&quot;&gt;&lt;span style=&quot;font-size: 8px;&quot;&gt;d&lt;/span&gt;&lt;/font&gt;&lt;/span&gt;&lt;span style=&quot;font-family: Times; background-color: initial; font-size: 8px;&quot;&gt;&lt;sub&gt;Î¸&lt;/sub&gt;&lt;/span&gt;&lt;/i&gt;&lt;br style=&quot;font-size: 8px;&quot;&gt;&lt;/font&gt;&lt;/div&gt;" style="text;html=1;align=center;verticalAlign=middle;whiteSpace=wrap;rounded=0;fontColor=#000000;fontSize=8;" vertex="1" parent="1">
          <mxGeometry x="232.5" y="109" width="60" height="31" as="geometry" />
        </mxCell>
        <mxCell id="5lgF-B48ensd-EPBzMQI-63" value="" style="rounded=1;whiteSpace=wrap;html=1;fillColor=#e1d5e7;strokeColor=#9673a6;" vertex="1" parent="1">
          <mxGeometry x="331" y="45" width="20" height="160" as="geometry" />
        </mxCell>
        <mxCell id="5lgF-B48ensd-EPBzMQI-64" value="" style="ellipse;whiteSpace=wrap;html=1;aspect=fixed;" vertex="1" parent="1">
          <mxGeometry x="336" y="50" width="10" height="10" as="geometry" />
        </mxCell>
        <mxCell id="5lgF-B48ensd-EPBzMQI-65" value="" style="ellipse;whiteSpace=wrap;html=1;aspect=fixed;" vertex="1" parent="1">
          <mxGeometry x="336" y="65" width="10" height="10" as="geometry" />
        </mxCell>
        <mxCell id="5lgF-B48ensd-EPBzMQI-66" value="" style="ellipse;whiteSpace=wrap;html=1;aspect=fixed;" vertex="1" parent="1">
          <mxGeometry x="336" y="79" width="10" height="10" as="geometry" />
        </mxCell>
        <mxCell id="5lgF-B48ensd-EPBzMQI-67" value="" style="ellipse;whiteSpace=wrap;html=1;aspect=fixed;" vertex="1" parent="1">
          <mxGeometry x="336" y="94" width="10" height="10" as="geometry" />
        </mxCell>
        <mxCell id="5lgF-B48ensd-EPBzMQI-68" value="" style="ellipse;whiteSpace=wrap;html=1;aspect=fixed;" vertex="1" parent="1">
          <mxGeometry x="336" y="110" width="10" height="10" as="geometry" />
        </mxCell>
        <mxCell id="5lgF-B48ensd-EPBzMQI-69" value="" style="ellipse;whiteSpace=wrap;html=1;aspect=fixed;" vertex="1" parent="1">
          <mxGeometry x="336" y="126" width="10" height="10" as="geometry" />
        </mxCell>
        <mxCell id="5lgF-B48ensd-EPBzMQI-70" value="" style="ellipse;whiteSpace=wrap;html=1;aspect=fixed;" vertex="1" parent="1">
          <mxGeometry x="336" y="157" width="10" height="10" as="geometry" />
        </mxCell>
        <mxCell id="5lgF-B48ensd-EPBzMQI-71" value="" style="ellipse;whiteSpace=wrap;html=1;aspect=fixed;" vertex="1" parent="1">
          <mxGeometry x="336" y="141" width="10" height="10" as="geometry" />
        </mxCell>
        <mxCell id="5lgF-B48ensd-EPBzMQI-72" value="" style="ellipse;whiteSpace=wrap;html=1;aspect=fixed;" vertex="1" parent="1">
          <mxGeometry x="336" y="173" width="10" height="10" as="geometry" />
        </mxCell>
        <mxCell id="5lgF-B48ensd-EPBzMQI-73" value="" style="ellipse;whiteSpace=wrap;html=1;aspect=fixed;" vertex="1" parent="1">
          <mxGeometry x="336" y="189" width="10" height="10" as="geometry" />
        </mxCell>
        <mxCell id="5lgF-B48ensd-EPBzMQI-76" value="$$\hat{\textbf{x}}$$" style="text;html=1;align=center;verticalAlign=middle;whiteSpace=wrap;rounded=0;fontStyle=1;fontFamily=Verdana;" vertex="1" parent="1">
          <mxGeometry x="311" y="20" width="60" height="30" as="geometry" />
        </mxCell>
        <mxCell id="5lgF-B48ensd-EPBzMQI-77" value="$$\textbf{x}$$" style="text;html=1;align=center;verticalAlign=middle;whiteSpace=wrap;rounded=0;fontStyle=1;fontFamily=Verdana;" vertex="1" parent="1">
          <mxGeometry x="20" y="20" width="60" height="30" as="geometry" />
        </mxCell>
      </root>
    </mxGraphModel>
  </diagram>
</mxfile>
